<svg width="254" height="190" fill="none" xmlns="http://www.w3.org/2000/svg"><path d="M52.3008 57.1453C35.621 62.3488 18.7631 66.9464 9.38969 80.7749 5.46924 86.5486 3.36646 93.356 1.9052 100.199c-2.174066 10.3-2.92251 21.17.10692 31.257 3.02944 10.086 10.37138 19.281 20.35068 22.56 15.0046 4.918 32.3615-3.92 46.7959 2.424 7.3063 3.207 12.5098 9.765 18.3904 15.147 15.0399 13.721 36.4249 20.208 56.5619 17.214 21.99-3.279 41.913-17.072 64.152-17.179 9.302-.035 18.64 2.353 27.835.927 9.196-1.426 18.64-8.696 17.856-17.963-.499-5.809-4.776-10.514-7.413-15.717-7.092-14.078-1.746-30.865-.392-46.5823 2.566-29.9023-11.441-60.9095-36.068-78.0169-24.628-17.10736-59.163-19.17451-85.252-4.34809-6.985 3.99169-13.329 9.01699-19.816 13.75719-11.8327 8.7319-36.0325 28.2629-52.7122 33.4664z" fill="#F7F7F7"/><path d="M225.335 64.7012c.036.6416-.677 1.0692-1.247 1.3544-1.069.5346-2.067 1.1405-2.994 1.8889-2.21 1.7108-3.992 3.9561-5.168 6.4866-.998 2.174-1.532 4.5619-2.851 6.5578-1.675 2.5305-4.598 4.1699-7.627 4.3125-1.818.0713-3.671-.3564-5.489-.0356-2.566.4633-4.74 2.6017-5.274 5.1322-.107.4633-.143.9623-.428 1.3543-.285.4277-.713.5703-1.141.6059-.962 0-2.102-.7128-2.851-1.4613-2.602-2.673-5.061-5.6311-6.201-9.1952-1.782-5.6312 0-12.1177-2.602-17.4281-1.176-2.388-3.136-4.3125-4.206-6.7361-1.782-4.0274-1.176-9.3021-4.49-12.189-3.85-3.3502-10.728-1.3543-14.15-4.9184-2.851 5.6312-2.922 12.3672-1.318 18.4617.713 2.6731 1.71 5.2392 2.887 7.6984-.143.8553-.214 1.7107-.143 2.5661.036.2138.036.4277.178.6415.25.3921.749.4633 1.212.499.249.0356.499.0356.748.0713 1.07 1.8889 2.21 3.7422 3.386 5.5955 1.462 2.281 3.279 4.7402 5.738 5.6668-.926 1.2475-1.817 2.5305-2.637 3.8492.036-.2495.107-.499.143-.7841.071-.392.142-.8197-.036-1.1761-.285-.5346-1.034-.6415-1.568-.4277-.571.2495-.963.7128-1.319 1.1761-.285.3564-.57.7128-.855 1.1049-.072-2.8156-2.139-5.3461-4.242-7.3419-2.281-2.2097-4.847-4.4907-5.381-7.6271-.392-2.3166.392-4.7045-.036-7.0212-.499-2.673-2.566-4.7401-3.6-7.2706-1.639-4.0274-.499-8.5893.785-12.7593 1.104-3.4927 2.281-6.9499 4.134-10.0862 4.633-7.8766 13.329-13.1513 22.453-13.8998 9.124-.7128 18.426 3.0295 24.699 9.6942 9.302 9.8724 11.619 24.8414 21.028 34.6069.143.3564.428.6771.463 1.0335z" fill="#003668"/><path d="M193.081 92.3573c-.856 2.3166-2.281 4.4194-4.135 6.0589-.249.2138-.57.4633-.926.4277-.321-.0357-.535-.3208-.713-.5703-4.028-5.3817-6.986-11.5119-8.732-17.9984-1.889 1.0692-3.885 1.9602-5.988 1.6751-.463-.0713-.926-.1782-1.354-.3564-2.459-.9267-4.277-3.3859-5.738-5.6668-1.176-1.8177-2.317-3.7066-3.386-5.5956-.249-.0356-.499-.0356-.748-.0713-.428-.0356-.963-.1425-1.212-.4989-.107-.1782-.143-.3921-.178-.6416-.072-.8553 0-1.7107.142-2.5661-1.176-2.4948-2.21-5.0609-2.887-7.6983-1.603-6.0945-1.532-12.8306 1.319-18.4617 3.422 3.564 10.336 1.5681 14.149 4.9183 3.315 2.8869 2.709 8.1617 4.491 12.1891 1.069 2.4235 3.029 4.3481 4.206 6.736 2.601 5.3104.819 11.797 2.601 17.4282 1.105 3.564 3.564 6.5222 6.202 9.1952.748.7841 1.924 1.5325 2.887 1.4969z" fill="#F7C9BB"/><path d="M240.306 127.499c-.891-3.528-1.354-7.128-1.675-10.727-.356-3.921-.606-7.877-.677-11.833-.143-8.1616.249-16.6796-3.172-24.0928-2.673-5.8451-7.734-10.5496-13.722-12.9019-2.209 1.7108-3.991 3.9561-5.168 6.4866-.998 2.1741-1.532 4.562-2.851 6.5578-1.675 2.5305-4.597 4.17-7.627 4.3125-1.818.0713-3.671-.3564-5.489-.0356-2.566.4633-4.74 2.6017-5.274 5.1322-.107.4633-.143.9623-.428 1.3543-.285.4277-.713.5703-1.141.6059-.855 2.3167-2.28 4.4194-4.134 6.0589-.249.2138-.57.4633-.926.4277-.321-.0356-.535-.3208-.713-.5703-4.028-5.3817-6.986-11.5118-8.732-17.9984-1.889 1.0692-3.885 1.9602-5.988 1.6751-.463-.0713-.926-.1782-1.354-.3564-.927 1.2474-1.818 2.5305-2.637 3.8492-.535.891-1.07 1.782-1.497 2.673-1.212 2.4592-2.032 5.0966-2.959 7.6627-.641 1.7464-1.318 3.4571-2.102 5.1325-.927 2.103-1.961 4.134-3.101 6.13-3.92 7.021-8.91 13.436-14.755 18.961 2.316-.072 4.633-.179 6.95-.357-.285 1.426-.107 2.994.142 4.455.392 2.531.749 5.026 1.141 7.556.071.57.178 1.105.249 1.675 17.749 5.204 36.496 5.311 54.993 5.239 1.319 0 2.673-.035 3.85-.57 1.603-.713 2.601-2.245 3.849-3.493 2.495.82 5.025 1.568 7.662 1.889 2.388.321 4.812.285 7.2.464 5.88.463 11.619 2.245 17.464 2.494-2.959-5.702-5.81-11.583-7.378-17.856zm-71.78-.855c3.386-3.813 6.416-7.948 8.91-12.403 1.248 4.455 2.709 8.839 4.348 13.187-4.419-.285-8.803-.534-13.258-.784z" fill="#fff"/><path d="M240.304 127.499c-.891-3.528-1.354-7.128-1.675-10.727-.356-3.921-.606-7.877-.677-11.833-.143-8.1616.249-16.6796-3.172-24.0928-2.673-5.8451-7.734-10.5496-13.722-12.9019-2.209 1.7108-3.991 3.9561-5.168 6.4866-.998 2.1741-1.532 4.562-2.851 6.5578-1.675 2.5305-4.597 4.17-7.627 4.3125-1.818.0713-3.671-.3564-5.488-.0356-2.567.4633-4.741 2.6017-5.275 5.1322-.107.4633-.143.9623-.428 1.3543-.285.4277-.713.5703-1.14.6059-.856 2.3167-2.281 4.4194-4.135 6.0589-.249.2138-.57.4633-.926.4277-.321-.0356-.535-.3208-.713-.5703-4.028-5.3817-6.986-11.5118-8.732-17.9984-1.889 1.0692-3.885 1.9602-5.988 1.6751-.463-.0713-.926-.1782-1.354-.3564-.927 1.2474-1.818 2.5305-2.637 3.8492-.535.891-1.07 1.782-1.497 2.673-1.212 2.4592-2.032 5.0966-2.958 7.6627-.642 1.7464-1.319 3.4571-2.103 5.1325-.927 2.103-1.96 4.134-3.101 6.13-3.92 7.021-8.91 13.436-14.755 18.961 2.317-.072 4.633-.179 6.95-.357-.285 1.426-.107 2.994.142 4.455.392 2.531.749 5.026 1.141 7.556.071.57.178 1.105.249 1.675 17.749 5.204 36.496 5.311 54.993 5.239 1.319 0 2.674-.035 3.85-.57 1.603-.713 2.601-2.245 3.849-3.493 2.495.82 5.025 1.568 7.663 1.889 2.387.321 4.811.285 7.199.464 5.881.463 11.619 2.245 17.464 2.494-2.958-5.702-5.81-11.583-7.378-17.856zm-71.78-.855c3.386-3.813 6.416-7.948 8.91-12.403 1.248 4.455 2.709 8.839 4.349 13.187-4.42-.285-8.804-.534-13.259-.784z" fill="#FF5722"/><path d="M152.344 137.764c-2.21-.392-4.384-.713-6.594-1.034-.748.214-1.497.428-2.21.642-4.134 1.14-8.375 1.96-12.509 1.14-.713-.142-1.497-.356-1.961-.926-.356-.428-.463-1.07-.213-1.533-.25-.143-.464-.285-.642-.499-.57-.57-.82-1.39-.748-2.21-.036 0-.072 0-.107-.035-.606-.179-1.212-.571-1.426-1.176-.214-.606-.036-1.284.356-1.782.107-.143.214-.286.357-.393-.321-.106-.57-.32-.784-.57-.499-.641-.535-1.568-.072-2.209.713-1.07 2.246-1.141 3.529-1.105 4.063.107 8.161.142 12.224.035.892 0 1.783-.035 2.674-.071 2.316-.071 4.633-.178 6.949-.356-.285 1.425-.107 2.993.143 4.455.285 2.601.677 5.096 1.034 7.627z" fill="#F7C9BB"/><path d="M147.853 149.168c-10.229 1.176-20.885 1.461-30.259-2.673-.534-1.996-1.069-3.992-1.604-5.988.143-.142.285-.285.357-.463.178-.321.142-.713-.036-1.069.321-.25.606-.571.677-.998.143-.642-.178-1.355-.713-1.747.286-.178.464-.463.464-.819-.036-.428-.357-.785-.677-1.141-.749-.748-1.462-1.497-2.21-2.245-.499-2.032-.962-4.028-1.461-6.059-.606-2.638-1.212-5.311-1.747-7.984-1.354-6.807-2.316-14.149-2.103-21.0631 3.493.1426 7.022.2138 10.514.2138 6.273 0 12.581-.2138 18.854-.6415 0 4.3128.214 8.6248.642 12.9378.57 5.631 1.532 11.191 2.887 16.679-4.063.107-8.162.072-12.225-.035-1.283-.036-2.816.035-3.528 1.105-.428.677-.392 1.603.071 2.209.214.25.463.464.784.571-.143.107-.25.249-.356.392-.393.499-.571 1.211-.357 1.782.214.606.82.998 1.426 1.176.035 0 .071 0 .107.035-.072.785.178 1.604.748 2.21.178.178.392.357.642.499-.214.463-.143 1.105.213 1.533.464.57 1.248.784 1.961.926 4.17.82 8.411 0 12.509-1.14 1.141 4.063 2.602 8.019 4.42 11.797z" fill="#F7F7F7"/><path d="M168.703 84.7305c-.036.2495-.107.499-.143.7841-.535.891-1.069 1.782-1.497 2.673-1.212 2.4592-2.031 5.0966-2.958 7.6627-.642 1.7464-1.319 3.4572-2.103 5.1327-.641-.428-1.283-.891-1.782-1.4973-.392-.499-.677-1.0693-.998-1.6395-.534-.9623-1.105-1.8533-1.782-2.7087 2.424-3.2789 4.883-6.5578 7.413-9.7298.286-.3564.571-.7128.856-1.1049.356-.4633.784-.9623 1.318-1.1761.535-.2138 1.284-.1069 1.569.4277.249.3207.178.7484.107 1.1761z" fill="#986129"/><path d="M162.002 100.982c-.926 2.103-1.96 4.134-3.1 6.13-2.495-1.64-4.919-3.493-6.095-6.202-.107-.249-.214-.534-.285-.819-.071-.2141-.071-.4636-.071-.6774.035-.9623.677-1.7464 1.318-2.4592.784-.891 1.533-1.782 2.566-2.3523.143-.0713.321-.1782.499-.1069.143.0356.286.1782.393.2851.106.1069.178.2138.285.3564.677.8554 1.247 1.782 1.782 2.7087.285.5702.57 1.1405.998 1.6394.427.6062 1.069 1.0692 1.71 1.4972z" fill="#fff"/><path d="M158.901 107.112c-3.92 7.022-8.91 13.437-14.755 18.961-.891.036-1.782.071-2.673.071-1.354-5.488-2.316-11.048-2.887-16.679 4.919-2.673 8.982-6.772 13.936-9.409.071.285.178.57.285.819 1.212 2.745 3.635 4.598 6.094 6.237zM110.68 118.018c-2.424-1.497-4.598-3.457-6.273-5.774-.214-.285-.428-.57-.641-.784-1.07 6.059-1.818 12.189-2.281 18.32-3.1723.106-6.3443.178-9.5163.213.1425-.392.1425-.819.1069-1.247-.0713-.535-.2139-1.069-.5703-1.497-.0712-.071-.1425-.142-.2138-.214.2851-.784.2851-1.639 0-2.388-.2139-.57-.5703-1.105-1.0336-1.497.3921-.784.2851-1.817-.2138-2.566-.6059-.962-1.6395-1.568-2.6018-2.174-.9266-.534-1.8889-1.105-2.9225-1.247-.3564-5.596.1782-11.227 1.5682-16.644.6415-2.4594 1.4256-4.883 2.2097-7.3065.499-1.5326 1.0336-3.0651 1.5325-4.6333.5346-1.6394 1.0692-3.2789 1.3187-4.9896.5703-4.4551-1.0335-8.8388-2.7443-13.0088.3208.0357.6059.0713.9267.0713 1.4969.1069 3.0294.1782 4.455-.2495 1.2474-.3564 2.3879-1.0336 3.3502-1.8889 2.3523.9266 4.6685 1.8889 6.9495 2.9581 1.034.499 2.103.998 2.923 1.7821 1.212 1.1404 1.889 2.7443 2.495 4.2768 2.637 6.843 4.954 14.0423 9.658 19.6379-3.492 0-7.021-.0713-10.514-.2139-.285 6.9143.642 14.2563 2.032 21.0633z" fill="#4CDDA9"/><path d="M116.988 137.977c-.071.392-.356.748-.677.998.178.32.214.712.036 1.069-.071.178-.214.321-.357.463-.142.143-.32.25-.499.357-1.247.712-2.779.891-4.134.57-.891.534-2.067.57-3.136.57-1.319 0-2.78-.071-3.707-1.033-.606-.606-.855-1.497-.82-2.388 0-.428.072-.856.214-1.248-.534-.677-.998-1.39-1.211-2.245-.25-.998-.072-2.174.534-2.958-.285-.784-.356-1.64-.071-2.388.356-.891 1.319-1.568 2.245-1.533v-.035c-.214-.749-.142-1.64.464-2.139.356-.321.855-.392 1.318-.463 1.747-.25 3.564-.071 5.239.463.464 2.032.963 4.028 1.462 6.059.748.749 1.461 1.497 2.209 2.245.321.321.642.678.678 1.141.035.321-.179.641-.464.82.499.32.82 1.033.677 1.675z" fill="#F7C9BB"/><path d="M101.627 56.7171c-.321 2.7087-.713 5.4174-1.8176 7.8766-.6415 1.4612-1.5681 2.8512-2.7443 3.9204-.9623.891-2.0671 1.5682-3.3502 1.889-1.4256.392-2.9581.3564-4.455.2494-.3208-.0356-.6059-.0356-.9267-.0712-.7128-.0713-1.39-.1426-2.1028-.2139-.6771.4277-1.283.9623-1.782 1.5326-.499.5702-.9623 1.2117-1.283 1.8889 1.5325 4.063 1.1048 8.8388-1.1405 12.5454-.4634.7485-1.0336 1.4969-1.8177 1.889-.6772.3207-1.4256.392-2.1741.3207-2.5661-.2494-4.8114-1.8176-6.6291-3.6353-2.6374-2.6374-4.6689-5.9519-5.845-9.516-.3921-1.2117-.6772-2.4948-.7841-3.7779-.2138-2.4235.1782-4.8827 1.5682-6.8073.0356-.0713.1069-.1426.1425-.1782-.0356-1.6038-.2851-3.2076-.7128-4.7402-.5346-.5346-1.0692-1.0692-1.6038-1.5681-.5702-.5703-1.1761-1.1762-1.4256-1.9603-.0713-.2138-.1069-.4633-.1426-.6771-.0356-.2852-.0356-.5346-.0356-.8198 0-.5346.0356-1.1048.1425-1.6751.0357-.2138.0713-.4277.1426-.6415.2139-.6415.6059-1.2831 1.1761-1.6395.0713-.0356.1426-.1069.2495-.1425.7485-.3564 1.6038-.3208 2.4236-.1426 2.4948.5703 4.7045 2.3167 5.7737 4.6333 1.1405.0356 2.3167-.9267 2.8513-2.0315.6415-1.3544.7484-2.9582 1.3187-4.3482 1.1404-2.7086 3.956-4.2768 6.5222-5.7024 4.5263-2.4949 8.9101-5.2392 13.1513-8.1973.3207-.2139.6059-.4277.891-.7128.2851.2851.4989.6059.7128.9266.0356.0713.0713.1426.1069.1782.6772 1.0692 1.0692 2.3166 1.3187 3.5997.3921 2.0315.3921 4.0987.6769 6.1302.428 2.8512 1.426 5.6311 2.958 8.0903.321.499.678 1.0336.713 1.6395.107 1.1405-1.069 2.0671-2.067 1.8889z" fill="#986129"/><path d="M85.5178 86.9401c-1.0336 5.1323-2.9938 10.0506-4.4907 15.0759-.7484 2.424-1.3543 4.883-1.5682 7.413-.2495 3.137.2139 6.273.7128 9.374-2.0315 1.425-3.9917 2.922-5.9519 4.455.4633-2.495.9266-5.026 1.3543-7.52.3921-2.068.7485-4.206.3564-6.237-.2138-1.141-.6771-2.246-1.1405-3.315-2.3522-5.596-4.7045-11.1911-7.0568-16.7867-1.1405-2.7443-2.3166-5.4886-2.9225-8.4111-.6415-3.0651-.6772-6.2727-.1069-9.3378.1069 1.283.392 2.5661.7841 3.7779 1.1761 3.564 3.172 6.8429 5.845 9.516 1.8177 1.8176 4.063 3.3858 6.6291 3.6353.7485.0713 1.4969 0 2.1741-.3208.7841-.392 1.3543-1.1405 1.8177-1.8889 2.2809-3.7066 2.673-8.4824 1.1405-12.5454.3564-.6772.784-1.3187 1.283-1.889 2.1741 4.5976 2.1384 9.9793 1.1405 15.0046z" fill="#7451EB"/><path d="M62.5298 54.8635c0 .2852 0 .5346.0356.8198-1.4256 2.174-3.172 4.2055-5.5955 5.0253-2.3523.7841-5.0253.2851-7.0568-1.1405-2.0315-1.4256-3.3859-3.7066-3.8848-6.0945-.3208-1.4257-.3564-2.9226-.3564-4.3838 0-1.39.0356-2.8512.5702-4.1343.6059-1.39 1.7464-2.4948 2.9582-3.3858.9266-.6772 1.9602-1.3187 3.1363-1.4969.7485-.107 1.5326 0 2.1741.3564-.1426.5346.0356 1.1048.3564 1.5325-.5702-.392-1.4969.1782-1.4969.8554 0 .7128.7128 1.283 1.39 1.283-.5703.2495-.6415 1.1049-.2139 1.5326.3921.4633 1.1049.5346 1.6751.3207-.6058.1782-.9622.9267-.6771 1.4969.2851.5703 1.0692.7841 1.6038.4277-.2138.6415-.2138 1.4256.1782 1.9602.392.5703 1.2118.8554 1.8177.5346-.1783.5346-.2495 1.1405.0712 1.6395.2852.4633 1.0336.6772 1.4613.3208-.2495.6415.5346 1.3187 1.1761 1.1405.2495-.0713.5346-.1426.7841-.2852-.0713.5703-.1069 1.1405-.1069 1.6751z" fill="#000" fill-opacity=".92"/><path d="M63.991 50.9074c-.5702.392-.9623.9979-1.1761 1.6394-.0713.2139-.1069.4277-.1426.6416-.2494.1425-.5702.2138-.7841.2851-.6415.1782-1.4612-.499-1.1761-1.1405-.4277.3564-1.1405.1782-1.4612-.3208-.2852-.4633-.2495-1.1048-.0713-1.6394-.6059.3207-1.4257.0356-1.8177-.5346-.392-.5703-.4277-1.3187-.1782-1.9603-.499.3564-1.3187.1426-1.6038-.4276-.2851-.5703.0713-1.3187.6772-1.4969-.5703.1782-1.2831.1069-1.6751-.3208-.4277-.4633-.3208-1.3187.2138-1.5325-.7128 0-1.4256-.5703-1.39-1.2831 0-.7128.9267-1.2474 1.4969-.8554-.3207-.4277-.499-.9979-.3564-1.5325.0713-.3208.3208-.6059.6059-.7841.1782-.1069.392-.1782.5703-.1782.3564 0 .6771.2138.8553.5346.5703-.1782 1.2118-.0713 1.6751.2851.5703.4277.8197 1.2474.6415 1.9246.499-.2138 1.1049.2495 1.2118.7841s-.1069 1.1049-.3207 1.6038c.7128-.0713 1.4612.2495 1.8889.8198.4277.5702.5346 1.3543.2851 2.0315.6416 0 1.2118.6771 1.1049 1.3187-.0357.2851-.1782.5346-.0713.784.0713.1426.2138.2495.3564.3564.2495.2495.499.6059.6415.998z" fill="#FF5722"/><path d="M75.5742 115.738c-.4633 2.495-.891 5.025-1.3543 7.52-.5702.428-1.1405.891-1.6751 1.354-.0356.036-.0356.036-.0713.072-.7484-.392-1.6394-.393-2.4592-.143-.3564.107-.6771.249-.9623.392.6416-2.566 1.4969-5.061 1.6751-7.698.3921-4.883-1.5681-9.623-3.4927-14.114-2.7087-6.2013-5.5599-12.4028-7.0568-18.9963-1.39-6.2727-1.4613-13.0087.9979-18.925 1.7107-.1426 3.4215-.2495 5.1322-.3921-1.39 1.9246-1.782 4.3482-1.5682 6.8073-.5702 3.1008-.5346 6.2728.107 9.3378.6415 2.9226 1.782 5.6669 2.9225 8.4112 2.3522 5.5955 4.7045 11.1911 7.0568 16.7871.4633 1.069.891 2.174 1.1405 3.314.3564 2.067 0 4.206-.3921 6.273z" fill="#fff"/><path d="M67.6976 125.646c.4276-.25.8553-.535 1.3187-.749.6415-2.566 1.4969-5.061 1.6751-7.698.392-4.883-1.5682-9.623-3.4928-14.114-2.7087-6.201-5.5599-12.4024-7.0568-18.9959-1.39-6.2727-1.4613-13.0087.9979-18.925-4.3481.3564-8.7319.7128-13.08 1.1761-2.4592.2495-4.9897.5702-7.1637 1.782-2.3523 1.2831-4.0274 3.4571-5.5243 5.6312-4.6689 6.843-8.0191 14.5413-11.298 22.1684-3.4928 8.0902-6.9855 16.1812-10.4783 24.2352-1.3187 3.03-2.6374 6.059-3.4215 9.267-.53459 2.138-.85535 4.384-.46331 6.558.39201 2.174 1.60381 4.276 3.49271 5.346 1.6395.962 3.6354 1.069 5.5243 1.14 13.3652.57 26.8016.321 39.9886-1.746 3.8491-.606 7.7696-1.39 11.0485-3.386-.8554-3.386-1.7107-6.772-2.6017-10.158-.0713-.356-.1782-.748 0-1.069.1069-.178.3564-.321.5346-.463zm-29.5103-1.176c-1.7108.285-3.4571.356-5.2035.178 1.5682-4.277 3.7066-8.376 6.344-12.118-.6772 3.921-1.0336 7.912-1.1405 11.94z" fill="#4CDDA9"/><path d="M76.572 135.945c-.2138.571-.891.749-1.4969.891-1.5682.286-3.172.606-4.7402.891-.1425.036-.3207.072-.4276-.035-.107-.072-.1426-.178-.1782-.321-.8554-3.386-1.7108-6.772-2.6018-10.158-.0713-.356-.1782-.748 0-1.069.1069-.214.3208-.356.5346-.463.4277-.25.8554-.535 1.3187-.749.3208-.178.6415-.285.9623-.392.8197-.249 1.7107-.249 2.4592.143.0356-.036.0356-.036.0713-.071 1.8533 3.243 3.2076 6.736 4.0273 10.371.0357.143.0713.285.0713.428.0713.178.0713.356 0 .534z" fill="#fff"/><path d="M92.2538 132.809c-.0356.642-.392 1.212-.7841 1.747-.5346.677-1.1761 1.283-2.0315 1.461-.6771.142-1.3543 0-1.9958-.143-.7128-.178-1.5682-.499-1.7464-1.211-.1426-.606.2495-1.105.7128-1.533-.9623-.392-1.9246-.642-2.9225-.855-.4277-.072-.8554-.143-1.2474-.036-.5346.143-.9623.499-1.39.82-.9623.784-2.0315 1.461-3.172 1.996-.3208.142-.6772.285-1.0336.356 0-.143-.0356-.285-.0712-.428-.8198-3.635-2.1741-7.128-4.0274-10.371.5702-.463 1.1048-.927 1.6751-1.354 1.9246-1.533 3.9204-3.03 5.9519-4.455.1069-.072.2495-.179.3921-.286.9623-.677 1.9958-1.354 3.172-1.425.2495 0 .4989 0 .7484.035 1.0336.143 2.0315.713 2.9225 1.248.998.57 1.9959 1.212 2.6018 2.174.4633.748.6059 1.818.2138 2.566.4634.392.8554.927 1.0336 1.497.2851.784.2851 1.639 0 2.388.0713.071.1426.142.2138.214.3565.392.499.962.5703 1.497.0356.427.0356.855-.1069 1.247v.036c-.107.285-.3208.57-.6059.712.5702.571.9979 1.319.9266 2.103z" fill="#986129"/><path d="M91.0422 83.5541c-.2138 1.7108-.7484 3.3502-1.3187 4.9897-.499 1.5325-.9979 3.0651-1.5325 4.6333-.7841 2.4235-1.6039 4.8471-2.2097 7.3059-1.3544 5.418-1.889 11.049-1.5682 16.644-.2495-.035-.499-.035-.7485-.035-1.1761.071-2.2097.748-3.172 1.425-.1425.072-.2494.179-.392.286-.499-3.101-.9623-6.238-.7128-9.374.1782-2.53.8197-4.99 1.5682-7.413 1.5325-5.0254 3.4927-9.9082 4.4907-15.076.9979-5.0253 1.0335-10.407-1.1049-15.0403.5346-.6059 1.1405-1.1048 1.782-1.5325.7128.1069 1.39.1782 2.1028.2138 1.8177 4.1343 3.4215 8.5537 2.8156 12.9731z" fill="#fff"/><path d="M98.0275 35.4397c-.0356-.0713-.0713-.1425-.1069-.1782-.2139-.3207-.4634-.6415-.7128-.9266-.2495.2851-.5703.4989-.891.7128-4.2413 2.9581-8.625 5.7024-13.1514 8.1973-2.5661 1.4256-5.3817 2.9938-6.5222 5.7024-.6059 1.39-.6771 2.9582-1.3187 4.3482-.5346 1.1048-1.7107 2.0671-2.8512 2.0315-1.1048-2.3166-3.2789-4.063-5.7737-4.6333-.8198-.1782-1.6751-.2494-2.4236.1426-.0713.0356-.1426.0713-.2495.1426-.1425-.3921-.392-.7485-.7128-.998-.1425-.1069-.2851-.1782-.3564-.3564-.1069-.2495.0357-.5346.0713-.7841.1069-.6415-.4633-1.3187-1.1049-1.3187.2495-.6771.1426-1.4612-.2851-2.0315-.4277-.5702-1.1761-.891-1.8889-.8197.2138-.499.4277-1.0692.3207-1.6038-.1069-.5346-.7128-1.0336-1.2117-.7841.2138-.6772-.0713-1.4969-.6416-1.9246-.4633-.3564-1.1048-.4633-1.6751-.2851-.1782-.2851-.4989-.5346-.8553-.5346-.2139 0-.3921.0713-.5703.1782-.7841-6.5579.2139-13.6859 4.7402-18.4618 2.6017-2.7443 6.1301-4.455 9.8011-5.3104 5.7738-1.39 12.0465-.7484 17.2856 2.0315 4.8115 2.5661 9.4447 7.9478 10.2645 12.189.8197 4.2413.8197 5.2748.8197 5.2748z" fill="#000" fill-opacity=".92"/><path d="M169.808 74.7873c-.82 1.1761-1.996 2.1028-3.351 2.6374-.107-.1426-.214-.2852-.32-.4634 1.211-.4633 2.281-1.2474 3.065-2.2809.035-.0713.107-.1426.142-.2139.071-.1069.178-.2851.178-.392-.285.1425-.605.2494-.891.3564-1.176.4277-2.423.6771-3.671.7841-.107-.1782-.213-.3564-.32-.499 1.71-.0713 3.421-.499 4.954-1.2474.107-.0357.249-.0357.32.0713.25.2851.214.7484-.106 1.2474z" fill="gray"/><path d="M169.843 74.1451l-.642.5346c-1.033.7841-2.245 1.3543-3.492 1.6751-.072-.1426-.179-.2495-.25-.392-.035-.0357-.035-.0713-.071-.107 1.14-.2495 2.281-.7484 3.243-1.4256.285-.2138.57-.4277.856-.6772.107-.1069.285-.1069.392 0 .071.107.071.2852-.036.3921z" fill="gray"/><path d="M180.749 78.3867c-.071 0-.142-.0357-.178-.0713-.107-.1069-.107-.2851 0-.392 1.14-1.1762 2.138-2.4592 2.958-3.8492.071-.1426.25-.1782.356-.1069.143.0713.179.2495.107.3564-.855 1.4256-1.853 2.7799-3.029 3.9561-.071.0713-.143.1069-.214.1069zM173.015 57.964c-.036.0712-.178.3564-.677.2138-1.497-.4277-3.065-.2138-4.705.0356-.962.1426-1.96.2852-2.922.2852-.535 0-1.105-.0357-1.64-.1782-.142-.0357-.214-.1426-.214-.2852 0-.392.107-.4633.143-.4989.071-.0357.143-.0713.214-.0713.178 0 .321.0356.499.0356.962 0 1.924-.2494 2.922-.5346 1.105-.3207 2.281-.6415 3.493-.5702.962.0713 1.889.392 2.673.9623.214.1425.285.392.214.6059zM158.723 57.0379c0 .1069-.036.2138-.107.2851-.107.0713-.214.1069-.321.1069h-.142l-1.319-.2851c-.035-.1782-.071-.3921-.107-.5703-.035-.2851-.107-.5346-.142-.8197-.036-.2495-.072-.4633-.107-.7128.748.499 1.461 1.0692 2.103 1.6751.035.0713.142.1782.142.3208zM172.587 60.8511c-.249.0356-.499 0-.712-.0713-.036 0-.107-.0357-.143-.0713-.071-.0356-.107-.0356-.178-.0356-.036 0-.072.0356-.072.0712-.035.0357-.071.0713-.071.0713-.713.7485-1.568 1.2474-2.423 1.4613-.998.2495-2.032.1069-2.816-.3564-.107-.0713-.285-.0357-.356.0713-.072.1425-.036.2851.071.3564.428.2851.962.4633 1.497.5346 0 0 .035.0356.071.0356.392.1069.677.3208.927.6059.071.0713.142.1069.214.1069.071 0 .107 0 .178-.0713.107-.1069.142-.2495.035-.3564 0-.0356-.035-.0356-.035-.0356.249.1425.534.2495.855.3208h.071c.107 0 .25-.0713.25-.2139v-.1426c.178.0713.392.1426.606.1783h.035c.143 0 .25-.107.286-.2495 0-.107-.036-.2139-.143-.2495.107.0356.25.0713.392.1069h.071c.107 0 .25-.0713.25-.2138.035-.1426-.071-.2852-.214-.3208-.214-.0356-.392-.1069-.57-.2138.035 0 .071-.0357.107-.0713.356.1782.748.2851 1.14.2851h.071c.143 0 .25-.1426.25-.2851v-.1069c.071 0 .178.0356.249.0356.143 0 .25-.1069.286-.2495 0-.1426-.107-.2851-.25-.2851-.249 0-.499-.0713-.713-.2139 0 0 .036-.0356.072-.0356.213.0713.463.1426.712.1426h.285c.143-.0357.25-.1426.214-.3208-.214-.1069-.356-.2138-.499-.2138zm-3.457 1.9602c.036 0 .072-.0357.107-.0357.071.0357.107.107.178.1426-.107-.0356-.178-.0713-.285-.1069zm1.39 0s0-.0357 0 0c-.249-.0357-.499-.1069-.677-.2495.036 0 .071-.0356.107-.0356.178.1069.356.2138.57.2851zm.606-1.0336c.036-.0356.071-.0356.071-.0713.072.0713.179.107.285.1426-.106 0-.249-.0357-.356-.0713zM160.006 60.8165c0 .1425-.107.2851-.249.2851h-.071c0 .0356-.036.0356-.072.0713l-.962.891c-.071.0356-.107.0713-.178.0713-.072 0-.143-.0357-.178-.0713-.107-.1069-.107-.2851 0-.3921l.356-.3207c-.214.1425-.428.2495-.677.3564h-.071c-.107 0-.214-.0713-.25-.1782-.036-.0713 0-.1426 0-.2139-.036 0-.071 0-.107.0357h-.036c-.142 0-.249-.1069-.285-.2495 0-.1069.036-.2139.143-.2495-.071-.0356-.178-.0713-.25-.0713-.142-.0712-.213-.2138-.178-.3564.036-.1425.214-.2138.357-.1425.784.2851 1.603.392 2.423.3207.143-.0356.25.0713.285.2139z" fill="#003668"/><path d="M226.761 120.3c.392-.785.784-1.604 1.176-2.388.499-.998 1.033-2.032 1.532-3.101.998-2.138 1.818-4.348 2.602-6.522.749-2.067 1.533-4.17 2.459-6.202.072-.178 0-.392-.178-.463-.178-.071-.392 0-.463.178-.927 2.032-1.711 4.17-2.495 6.237-.784 2.139-1.604 4.348-2.566 6.451-.464 1.034-.998 2.067-1.497 3.065-.392.784-.82 1.568-1.176 2.388-.856 1.782-1.64 3.671-2.424 5.489-2.138 5.096-4.348 10.371-8.375 14.149-.143.143-.143.356 0 .499.071.071.178.107.249.107.071 0 .178-.036.25-.107 1.247-1.176 2.352-2.495 3.314-3.92.214.035.464.071.677.071-.463 1.711-1.853 3.065-2.993 4.17-.107.107-.107.285 0 .392.071.035.142.071.178.071.035 0 .142-.036.178-.071 1.212-1.176 2.709-2.638 3.172-4.562.535-.036 1.034-.143 1.497-.357-.036.606-.071 1.319.071 1.996-.356.499-.784 1.034-1.176 1.568-.392.535-.784 1.07-1.176 1.569-.071.107-.071.285.036.356.035.036.106.071.178.071.071 0 .178-.035.214-.107.356-.499.784-1.033 1.176-1.568.321-.427.641-.855.962-1.283.036.107.107.25.178.357.25.427.642.784.963 1.069l2.673 2.495c.071.035.106.071.178.071.071 0 .142-.036.178-.071.107-.107.107-.285 0-.392l-2.709-2.495c-.32-.285-.641-.606-.855-.963-.463-.784-.428-1.746-.356-2.815.213-.25.641-.178 1.247-.036l.214.072c.035 0 .107.035.178.035.107.962.748 1.925 1.853 2.816.321.249.606.463.927.677.641.428 1.247.855 1.711 1.39.463.535.819 1.14.998 1.818.035.106.142.178.249.178h.071c.143-.036.214-.178.179-.321-.214-.748-.571-1.461-1.105-2.032-.535-.605-1.176-1.033-1.818-1.461-.285-.214-.606-.427-.891-.641-.713-.535-1.532-1.39-1.639-2.424.035 0 .071-.035.106-.071.179-.107.25-.25.321-.428.143 0 .285.036.392.036 1.034 0 2.139-.285 3.244-.891 1.14-.606 2.138-1.426 3.1-2.21.499-.428.998-.855 1.176-1.497.179-.641 0-1.425-.499-2.174-.641-.962-1.639-1.711-2.744-2.067-.321-.214-.748-.214-1.283-.071-1.889.57-3.172 2.281-4.277 3.956-.356.534-.713 1.14-.677 1.782-.214 0-.428.035-.606.142-.249-.392-.57-.712-.998-.891.927-1.853 1.711-3.813 2.531-5.702.748-1.782 1.532-3.635 2.388-5.417zm-7.307 15.396c.535-.784.998-1.604 1.462-2.459.427.642.748 1.354.962 2.103-.749.356-1.604.499-2.424.356zm10.657-8.411c.748.357 1.39.927 1.889 1.604.249.356.641 1.069.427 1.746-.142.464-.534.856-.997 1.248-.963.819-1.889 1.568-2.994 2.138-1.141.606-2.281.856-3.279.784.071-.748-.036-1.39-.357-1.853-.107-.178-.285-.321-.463-.428 1.996-.926 3.778-2.281 5.239-3.92.357-.464.57-.927.535-1.319zm-5.524 3.422c1.069-1.604 2.245-3.208 3.991-3.743.072-.035.285-.071.499-.071.178 0 .357.036.464.178.285.357-.25 1.034-.357 1.141-1.425 1.604-3.207 2.922-5.168 3.849-.035-.428.25-.891.571-1.354zm-1.961 2.815c0 .143.107.285.25.285.142 0 .249-.107.285-.249 0-.25-.036-.499-.107-.713.428-.214.998.036 1.283.428.356.499.321 1.176.25 1.675-.036.142-.072.321-.179.392-.071.071-.213.071-.392 0l-.214-.071c-.463-.107-.997-.25-1.425-.072-.25-.891-.642-1.746-1.176-2.459.142-.249.285-.535.392-.784.606.249 1.033.891 1.033 1.568z" fill="#2E7E32"/><path d="M227.189 141.648c-.107 0-.179-.035-.214-.142-.357-.606-1.034-.998-1.711-1.39-.82-.464-1.675-.963-2.031-1.889-.036-.143 0-.285.142-.357.143-.035.285 0 .357.143.285.748.997 1.176 1.782 1.604.712.427 1.461.855 1.889 1.568.071.142.035.285-.107.356 0 .072-.036.107-.107.107zM199.496 114.063c-.071 0-.143-.036-.178-.071l-1.925-1.925c-.107-.107-.107-.285 0-.392.107-.107.285-.107.392 0l1.925 1.924c.107.107.107.286 0 .393-.071.035-.143.071-.214.071zM202.81 116.486c-.035 0-.107 0-.142-.035-.749-.428-1.426-.963-2.032-1.569-.107-.107-.107-.285 0-.392.107-.107.285-.107.392 0 .571.571 1.212 1.07 1.925 1.462.143.071.178.249.107.356-.036.107-.143.178-.25.178z" fill="#2E7E32"/><path d="M220.631 79.9545c-2.459 2.174-4.455 5.2391-5.952 9.1239-1.176 3.0651-1.96 6.344-2.709 9.516l-.285 1.2118c-2.21 9.1948-5.025 18.8898-10.407 27.2648-.071.107-.178.178-.285.178-.071 0-.143-.035-.178-.071-.179-.107-.214-.321-.107-.499 1.425-2.21 2.673-4.491 3.742-6.843-1.354-.321-2.388-1.247-3.386-2.174l-.036-.036c-10.763-9.872-17.713-22.9164-23.059-34.3926-.071-.1426 0-.2851.143-.3564.142-.0713.285 0 .356.1425 5.346 11.405 12.225 24.4135 22.917 34.2145l.036.036c.997.927 1.995 1.818 3.243 2.067.142-.285.285-.606.392-.927-.143-.106-.285-.213-.392-.32-.178-.178-.392-.321-.642-.535-.107-.107-.142-.249-.035-.392.071-.107.249-.142.392-.036.249.179.463.357.641.535.071.071.178.143.285.25 2.531-5.952 4.277-12.225 5.738-18.284l.286-1.2118c.748-3.172 1.532-6.4866 2.744-9.5873 1.532-3.9917 3.6-7.1637 6.13-9.409.143-.1426.392-.107.499.0356.107.1426.071.392-.071.499zM177.434 114.205c-.106 0-.213-.071-.249-.142-1.39-3.03-1.818-6.344-2.21-10.051-.321-3.029-.606-6.0588-.855-9.0882 0-.1425.107-.2851.249-.2851.143 0 .285.1069.285.2495.25 2.9938.535 6.0588.856 9.0528.392 3.635.82 6.914 2.174 9.908.071.142 0 .285-.143.356h-.107zM199.175 127.534c0 .178-.178.357-.356.357h-.713c-10.977 0-22.133-.499-32.932-.998-1.39-.072-2.78-.143-4.134-.285-.606-.072-1.212-.179-1.818-.286-.534-.107-1.105-.178-1.675-.249-1.604-.214-3.243-.285-4.847-.178l-.071 2.174c0 .142-.107.249-.285.249-.143 0-.25-.142-.25-.285l.071-2.103c-.249 0-.499.036-.748.072-.214 0-.356-.107-.392-.321 0-.178.142-.357.321-.392 2.102-.214 4.205-.178 6.308.107.57.071 1.141.178 1.711.249.57.107 1.176.178 1.782.285 1.354.179 2.708.25 4.063.285 11.048.499 22.418.998 33.609.998.178-.035.356.143.356.321zM152.843 132.239c-.143 0-.25-.107-.25-.249l-.321-2.637c0-.143.072-.286.25-.286.143 0 .285.072.285.25l.321 2.637c0 .107-.107.25-.285.285 0-.035 0 0 0 0zM153.484 136.516c-.142 0-.249-.107-.249-.214l-.357-2.494c-.035-.143.072-.285.214-.285.143-.036.285.071.285.213l.357 2.495c.035.143-.072.285-.214.285h-.036zM154.197 139.902c-.107 0-.214-.071-.25-.178l-.534-1.818c-.036-.143.036-.285.178-.321.143-.035.285.036.321.178l.534 1.818c.036.143-.035.285-.178.321h-.071z" fill="#2E7E32"/><path d="M159.614 105.758c-.035 0-.107 0-.142-.035-2.709-1.64-4.919-3.956-6.416-6.7362-.071-.1426-.035-.2852.107-.3564.143-.0713.285-.0357.357.1069 1.461 2.7087 3.599 4.9537 6.237 6.5227.142.071.178.249.107.356-.072.107-.143.142-.25.142zM160.755 103.941c-.036 0-.072 0-.107-.036-3.065-1.354-5.489-4.0985-6.487-7.2705-.035-.1425.036-.2851.178-.3207.143-.0357.285.0356.321.1782.962 3.065 3.279 5.631 6.166 6.95.142.071.178.214.142.356 0 .072-.106.143-.213.143zM161.61 102.373c-.036 0-.107 0-.143-.036-2.494-1.533-4.419-4.0275-5.274-6.8431-.036-.1425.035-.2851.178-.3208.142-.0356.285.0357.321.1782.819 2.7087 2.637 5.0967 5.025 6.5577.143.071.178.25.071.357 0 .035-.107.107-.178.107z" fill="#FF5722"/><path d="M152.415 138.155h-.143c-1.924-.463-3.92-.855-5.88-1.14-3.814 1.318-7.77 1.996-11.797 1.996h-.784c-1.105-.036-2.388-.107-3.6-.499-.428-.143-.998-.392-1.39-.891-.285-.392-.428-.998-.178-1.497-1.034-.464-1.64-1.675-1.426-2.78-.071-.036-.142-.036-.249-.072-.392-.107-.891-.285-1.212-.677-.321-.427-.392-1.069-.178-1.71.142-.428.356-.749.641-.927-.249-.143-.499-.357-.677-.642-.641-.998-.107-2.316.784-2.922.927-.677 2.139-.677 2.994-.642.677.036 1.283.107 1.853.25.143.035.25.178.214.321-.036.142-.178.249-.321.213-.534-.107-1.105-.178-1.782-.213-.748-.036-1.853 0-2.637.57-.677.463-1.105 1.497-.642 2.209.357.571 1.141.749 1.675.856 1.569.285 3.208.249 4.741-.107.142-.036.285.071.32.214.036.142-.071.285-.213.321-.891.213-1.818.32-2.745.32-.748 0-1.497-.071-2.209-.214-.214-.035-.464-.071-.713-.178-.036.036-.072.036-.107.036-.321.036-.57.428-.677.784-.072.249-.214.82.107 1.247.213.286.605.392.926.499 1.711.428 3.564.179 5.204-.071.142 0 .285.071.32.214.036.142-.071.285-.213.285-.998.143-2.103.285-3.208.285-.463 0-.962-.035-1.426-.107-.178.927.392 1.925 1.283 2.246.499.178 1.07.178 1.64.142.677-.035 1.354-.107 1.996-.178.142 0 .285.107.285.249 0 .143-.107.286-.25.286-.677.071-1.354.142-2.031.178h-.57c-.285 0-.606-.036-.927-.107-.214.285-.107.713.107.998.214.285.57.499 1.14.713 1.141.392 2.353.463 3.422.499 3.885.071 7.698-.464 11.369-1.64-.534-.071-1.033-.142-1.568-.178-.143 0-.249-.143-.249-.285 0-.143.142-.25.285-.25 2.887.321 5.809.82 8.66 1.497 0 .036 0 .107.036.143-.036.071-.036.214 0 .356z" fill="gray"/><path d="M130.878 107.396h.3-.3zm-2.701-3.653l-.024.299.024-.299zm-3.844 3.828c.097.135.285.165.419.068l2.188-1.582c.134-.097.164-.285.067-.419s-.284-.165-.419-.067l-1.944 1.406-1.407-1.945c-.097-.134-.284-.165-.419-.067-.134.097-.164.284-.067.418l1.582 2.188zm.704 1.452c-.097-.134-.285-.164-.419-.067s-.165.285-.068.419l.487-.352zm5.541-1.627c0 1.131-.542 1.953-1.22 2.5-.689.556-1.493.807-1.957.807v.6c.623 0 1.556-.312 2.334-.94.789-.637 1.443-1.619 1.443-2.967h-.6zm-2.425-3.354c1.101.087 1.681.546 2.005 1.136.339.617.42 1.417.42 2.218h.6c0-.818-.078-1.75-.494-2.507-.43-.784-1.201-1.343-2.483-1.445l-.048.598zm-3.281 3.401c.104-.643.394-1.554.933-2.272.531-.709 1.285-1.214 2.348-1.129l.048-.598c-1.321-.106-2.257.54-2.877 1.367-.612.817-.93 1.828-1.044 2.537l.592.095zm2.529 3.26c-.809 0-1.217-.206-1.504-.48-.151-.145-.279-.32-.415-.526-.13-.198-.278-.442-.445-.674l-.487.352c.159.219.283.427.431.652.143.216.3.436.501.629.42.403.989.647 1.919.647v-.6z" fill="#FF5722"/><path d="M133.312 102.693c-.927-1.64-2.709-2.602-5.168-2.7446-2.566-.1782-3.386.4986-4.562 1.5326-1.212 1.033-2.067 2.495-2.424 4.17-.392 1.746-.178 3.528.606 4.989.82 1.604 2.281 2.78 3.921 3.172.427.107.891.179 1.354.179 1.39 0 2.78-.499 3.956-1.39 1.39-1.07 2.424-2.745 2.887-4.634.463-1.924.249-3.813-.57-5.274zm-.143 5.096c-.428 1.747-1.354 3.244-2.637 4.241-1.39 1.07-3.137 1.497-4.705 1.105-1.425-.356-2.708-1.425-3.457-2.815-.677-1.319-.891-2.958-.535-4.527.321-1.497 1.105-2.851 2.21-3.778 1.034-.891 1.64-1.389 3.386-1.389.214 0 .428 0 .713.035 2.245.143 3.778.962 4.597 2.388.678 1.283.856 2.994.428 4.74zM70.6914 137.87c-.1426 0-.2495-.107-.2495-.249-.4633-3.956-1.5325-7.805-3.1363-11.441-.0713-.142-.0001-.285.1425-.356.1426-.071.2851 0 .3564.142 1.6038 3.671 2.673 7.592 3.172 11.584 0 .178-.1069.285-.2851.32.0356 0 0 0 0 0zM72.5446 137.3c-.1425 0-.2495-.106-.2495-.213-.6058-4.028-1.7463-7.948-3.4571-11.655-.0713-.142 0-.285.1426-.356.1425-.071.2851 0 .3564.142 1.7107 3.743 2.8869 7.734 3.4928 11.797.0356.143-.0713.285-.2139.321l-.0713-.036zM74.1841 136.979c-.1425 0-.2495-.107-.2495-.249-.3207-4.206-1.5681-8.412-3.5996-12.118-.0713-.143-.0357-.285.1069-.357.1425-.071.2851-.035.3564.107 2.0671 3.778 3.3145 8.055 3.6709 12.332 0 .142-.1069.249-.2851.285.0357 0 .0357 0 0 0z" fill="#FF5722"/><path d="M73.2922 123.578c-.0355.107-.142.178-.2485.178.071-.071.1775-.107.2485-.178z" fill="#B2B2B2"/><path d="M91.5767 134.592c-.8553 1.069-2.174 1.675-3.4214 1.675-.499 0-.998-.107-1.4613-.321-.5702-.249-1.1761-.82-1.1405-1.532 0-.535.3208-.963.7128-1.319-1.0336-.499-2.1384-.784-3.2789-.891-.1426 0-.2495-.143-.2495-.285 0-.143.1426-.25.2851-.25 1.9246.178 3.8136.927 5.3461 2.067.1069.072.1426.25.0356.392-.0356.072-.1425.107-.2138.107s-.1069 0-.1782-.071c-.392-.321-.8197-.57-1.283-.82-.3565.321-.6772.677-.6772 1.07 0 .498.4633.855.8554 1.033 1.3543.642 3.2076.107 4.2412-1.212.5702-.712.9266-1.889.4989-2.637-.2851-.463-.7841-.749-1.2474-1.034-1.8176-1.033-3.671-2.102-5.7025-2.708-.1425-.036-.2138-.179-.1782-.321.0357-.143.1782-.214.3208-.178 2.0671.641 3.9917 1.71 5.8094 2.744.1426.071.2851.178.4277.25 0-.036.0356-.072.0713-.107.3564-.321.3564-.927.3207-1.462-.0356-.499-.0712-.998-.2851-1.354-.0356-.107-.1069-.178-.1782-.249-.0356-.036-.1069-.107-.1782-.143-.1782-.107-.4277-.214-.6415-.285-2.0315-.784-4.0274-1.64-5.952-2.566-.1425-.072-.1782-.214-.1425-.357.0712-.142.2138-.178.3564-.107 1.9245.927 3.8848 1.818 5.8806 2.567.2139.071.4277.178.6416.285.2851-1.105.0356-2.353-.7128-3.244-.0713-.071-.1426-.178-.2139-.249-.0713-.036-.1069-.107-.1782-.143-.6059-.534-1.3543-.891-2.1028-1.247l-2.9938-1.354c-.1425-.072-.1782-.214-.1425-.357.0712-.142.2138-.178.3564-.142l2.9938 1.354c.6771.321 1.4256.641 2.0671 1.176.1069-.606-.1069-1.247-.4277-1.711-.4989-.784-1.3543-1.318-2.1028-1.782-1.1761-.748-2.3522-1.461-3.564-1.461-.1426 0-.2851 0-.4633.036h-.0713c-.2851.035-.5346.107-.8197.214-.1782.071-.3564.142-.5346.249-.2852.143-.5703.321-.8911.535-.1069.071-.2494.178-.3564.249l-.0356.036c-2.78 1.889-5.4886 3.885-8.1617 5.916-.0356.036-.1069.071-.1782.071-.0712 0-.1425-.035-.2138-.107-.0713-.107-.0713-.285.0356-.356.1782-.143.3921-.321.6059-.463.1069 0 .2139-.072.2495-.179 2.4236-1.817 4.8827-3.635 7.3776-5.346.0356 0 .0356-.035.0713-.035.1782-.107.3207-.214.4633-.321.3207-.214.6415-.392.9979-.57.1782-.072.3564-.178.5346-.214.2495-.071.4633-.143.7485-.178h.1069c.1425 0 .2851-.036.4277-.036 1.39 0 2.6374.713 3.9204 1.568.7841.499 1.6751 1.069 2.2454 1.96.4277.642.6771 1.604.4277 2.424.9979 1.069 1.3543 2.744.891 4.134.4277.499.5346 1.212.5346 1.854.0356.463.0713 1.39-.499 1.889.2139.178.4277.392.5702.677.7485.926.3208 2.316-.3564 3.172zM70.0141 58.2853c-1.1761-.0356-2.3522-.5346-3.4927-1.4969-.3921-.3564-.9267-.8197-1.1405-1.4612-.2139-.5703-.1782-1.39.3564-1.889.2851-.2495.7128-.392 1.1048-.2851.3564.0713.6416.2851.7841.5702.0713.1426 0 .2852-.1425.3564-.1426.0713-.2852.0001-.3564-.1425-.107-.1782-.2852-.2495-.3921-.2851-.2495-.0357-.499.0356-.6415.1782-.3564.3207-.3564.9266-.2139 1.3187.1782.5346.6416.9266.998 1.2474 1.0692.891 2.1384 1.3543 3.172 1.39.1425 0 .2494.1425.2494.2851 0 .1069-.1425.2138-.2851.2138zM65.3453 69.9756c-.0356 0-.0713 0-.1069-.0356-.1426-.0713-.2138-.2138-.1426-.3564 1.1762-2.6374 1.2831-6.2371.3208-9.6585-.0356-.107 0-.2495.1069-.3208.1069-.0713.2495-.0357.3208.0356.7128.7485 2.0671 1.2118 3.3502 1.2118.891 0 1.6038-.2495 2.0671-.7128.1069-.1069.2852-.1069.3921 0s.1069.2851 0 .392c-.5346.5346-1.4256.8554-2.4236.8554-1.1048 0-2.2453-.3208-3.0651-.8554.7485 3.3146.5703 6.7004-.5702 9.2665-.0356.1426-.1426.1782-.2495.1782zM86.48 70.2963c0 .1069-.0357.2138-.1069.2495-.0713.0712-.1783.1425-.2495.2138-.107.1069-.2495.1782-.3564.2851-.2852.2495-.5703.499-.8198.7841-.1425.1426-.2851.2851-.392.4277-3.2789 3.5997-3.9205 8.1973-4.4551 12.0108-.0712.3921-.1069.7485-.1782 1.1049 0 .1425-.1425.2138-.2495.2138h-.0356c-.1426-.0356-.2495-.1782-.2138-.2851.0712-.3564.1069-.7485.1782-1.1049.6059-4.4194 1.3899-9.8724 6.0945-13.7215-.1782-.0713-.3564-.1069-.5346-.1782-1.6395-.5703-3.7066-1.2474-5.0253-1.8177-.1426-.0713-.1782-.2138-.1426-.3564.0713-.1425.2138-.1782.3564-.1425 1.2831.5702 3.3146 1.2474 4.954 1.8176.3564.1069.6772.2495.998.3208.0712 0 .1425.1069.1782.1782z" fill="#B2B2B2"/><path d="M100.38 63.0258c-.6417.1782-1.4258.2851-2.1742.3207.6772.1782 1.39.2139 1.9602.1426h.071c-.071.2495-.178.499-.2848.7485h-.2852c-1.2117 0-2.7443-.3921-3.6709-1.1405-.1426-.107-.1782-.2852-.1069-.4277.0712-.1426.2494-.2139.392-.1782 1.2831.3207 3.2076.1782 4.3478-.2851-.071.2851-.142.5346-.249.8197zM101.057 57.0376l-2.1741-.1426c-.2139 0-.3564-.1782-.3208-.392 0-.2139.1782-.3564.392-.3208l2.1389.1426c.213 0 .356.1782.32.392 0 .1782-.178.3208-.356.3208zM100.95 46.559c-.142.2138-.321.4277-.534.5346-.072-.2495-.107-.499-.179-.7485.036-.0356.072-.0712.107-.1425.107-.1782.321-.2495.499-.1426.143.1069.214.3208.107.499z" fill="#003668"/><path d="M65.4879 126.037c-7.0212-1.39-14.1849-1.924-21.3486-1.603-.6772.035-1.3544.071-2.0672.107-1.1048.071-2.2453.142-3.3858.142.0356-4.562.5703-9.16 1.5325-13.65.998-1.497 2.0315-2.994 3.1008-4.455.1069-.143.0712-.392-.0713-.499-.1426-.107-.3921-.072-.499.071-4.2056 5.56-7.6627 11.654-10.3001 18.105-.392-.071-.8197-.178-1.2117-.285-.1783-.035-.3921.072-.4277.25-.0713.178.0712.392.2494.427.4634.107.9267.214 1.3544.321.1425.036.2495.036.3564.071 3.0651.535 6.2727.357 9.3378.179.6771-.036 1.3543-.072 2.0671-.107 7.0925-.321 14.2206.214 21.1704 1.568h.0713c.1782 0 .3208-.107.3564-.285.0357-.107-.0713-.321-.2851-.357zm-32.3259-1.603c1.6751-4.063 3.671-7.948 5.9876-11.69-.7484 3.956-1.1405 7.983-1.1761 11.975-1.6038.035-3.2076-.036-4.8115-.285z" fill="#B2B2B2"/><path d="M74.2912 118.41c-.4277 1.675-.891 3.386-.9623 5.097v.071c-.0357.107-.1426.178-.2495.178-.1426 0-.2495-.142-.2495-.285.0713-1.782.5346-3.528.9979-5.203.499-1.96 1.0336-3.956.9623-5.988-.1069-2.744-1.283-5.346-2.4235-7.841l-.1426-.285c-2.1028-4.6331-4.063-9.4089-5.845-14.1847-1.3543-3.6353-2.8156-7.9122-3.3502-12.3316-.5703-4.7402.1069-9.0883 1.8889-12.5811.0713-.1425.2139-.1782.3564-.1069.1426.0713.1782.2138.107.3564-1.7464 3.3858-2.3879 7.6627-1.8533 12.296.4989 4.3837 1.9958 8.6249 3.3145 12.2246 1.782 4.7758 3.7423 9.5517 5.845 14.1493l.1426.285c1.1761 2.566 2.3879 5.204 2.4592 8.055.0356 2.031-.499 4.098-.9979 6.094z" fill="#FF5722"/><path d="M71.5823 124.149h-.0713c-.1425-.036-.2138-.179-.1782-.321 1.3187-4.455 2.9582-10.015 1.3187-15.04-.392-1.248-.9979-2.424-1.6038-3.564l-.2138-.464c-3.279-6.4863-5.8451-13.3649-7.6627-20.4217-1.4256-5.5243-2.7087-12.688-.1426-19.032.0713-.1426.2139-.2139.3564-.1426.1426.0713.2139.2138.1426.3564-2.5305 6.2014-1.2474 13.2582.1425 18.7112 1.7821 7.0212 4.3482 13.8285 7.6271 20.3147l.2138.464c.6059 1.176 1.2118 2.388 1.6038 3.671 1.6751 5.168.0357 10.799-1.3187 15.361 0 .035-.1069.107-.2138.107z" fill="#FF5722"/><path d="M70.0856 124.398h-.0357c-.1426-.036-.2495-.178-.2138-.321l1.0335-5.524c.3564-1.889.7485-3.849.6416-5.809-.1426-2.994-1.4256-5.845-2.6374-8.59l-.2852-.641c-3.3145-7.4491-5.9875-15.2543-7.9478-23.2021-.2851-1.2118-.6059-2.5305-.7484-3.8492-.1426-1.39-.1426-2.8869.0356-4.5976.2852-2.4948.8198-4.7045 1.6751-6.6291.0713-.1426.2139-.2139.3564-.1426.1426.0713.2139.2139.1426.3564-.8197 1.889-1.3543 4.063-1.6395 6.4866-.1782 1.6751-.2138 3.1363-.0356 4.455.1426 1.2831.4277 2.5661.7484 3.7779 1.9603 7.8765 4.5977 15.6818 7.9122 23.0947l.2851.642c1.2475 2.78 2.5305 5.667 2.6731 8.767.1069 1.996-.2851 3.992-.6415 5.917l-1.0336 5.524c-.0357.214-.1426.285-.2851.285zM87.3355 83.1261c-.2139 2.2097-.8554 4.3482-1.5682 6.5222-.2495.7841-.499 1.5682-.7841 2.3523-1.2474 3.8492-2.5661 7.8053-3.4215 11.8324-1.1048 5.311-1.2117 9.908-.3564 14.043-.1425.106-.3207.213-.4633.32-.9267-4.277-.8197-9.017.3208-14.47.8553-4.0271 2.1384-8.0188 3.4214-11.868.2495-.7841.5346-1.5681.7841-2.3522.7128-2.2454 1.3544-4.2769 1.5682-6.4153.3208-3.3858-.4633-7.1281-2.2453-10.8347.1069-.1426.2494-.2851.392-.4277v.0357c1.8533 3.8135 2.673 7.6983 2.3523 11.2623z" fill="#FF5722"/><path d="M86.8721 92.0366c-.2852.6772-.5703 1.3187-.8554 1.9602-.2851.6059-.5703 1.2474-.8197 1.8533-2.78 6.8069-2.6731 14.3989-2.4949 21.2419-.1782.071-.3564.142-.5346.214-.1782-6.915-.3207-14.684 2.5305-21.6697.2495-.6415.5346-1.2831.8197-1.889.2851-.6415.5703-1.283.8554-1.9602 2.6374-6.5578 2.4235-14.2918-.6059-20.7071 0-.0356 0-.0356-.0356-.0712.1069-.107.2494-.1782.3564-.2852.0712.0357.1069.0713.1425.1426 3.1364 6.5578 3.3502 14.47.6416 21.1704z" fill="#FF5722"/><path d="M88.7967 89.0073c-.3564 1.2474-.7485 2.4948-1.1405 3.7066-1.0692 3.4215-2.1741 6.9499-2.9582 10.5141-1.1048 5.132-1.3543 9.623-.6771 13.614-.1426 0-.2852 0-.4277.036h-.1069c-.6772-4.063-.4277-8.589.6771-13.793.7841-3.5994 1.889-7.1278 2.9582-10.585.392-1.2474.7841-2.4591 1.1405-3.7066.891-2.8868 1.7107-5.9519 1.4969-9.017-.2139-3.1363-1.4969-6.0589-2.7087-8.8745-.0713-.1425 0-.2851.1426-.3564.1425-.0712.2851 0 .3564.1426 1.2474 2.8869 2.5304 5.845 2.7799 9.0527.1782 3.2076-.6415 6.344-1.5325 9.2665z" fill="#FF5722"/><path d="M95.8891 49.2685c-.1069-.1069-.2494-.1425-.3564-.0713-2.2453.7841-4.4194 1.8177-6.4509 3.0295-.1425.0713-.2138.2495-.1782.392.0357.1426.1426.2495.3208.2851.2138.0357.4277.0357.6772.0357.7128 0 1.4256-.1069 2.1384-.2495.4633-.0713 1.0335-.1782 1.5682-.4277.4633-.2495.8553-.6415 1.2474-.9979.4277-.4277.9266-.9267 1.1761-1.5682-.0356-.1782-.0356-.3208-.1426-.4277zm-3.9917 2.7087c-.4277.0713-.8554.1426-1.283.1782.7484-.3921 1.4969-.7841 2.2453-1.1405-.0356.2495-.0356.5346 0 .7128-.2851.1069-.6059.1782-.9623.2495z" fill="#003668"/><path d="M92.8596 51.7631c-.2851.1069-.6059.1426-.9623.2138-.4277.0713-.8554.1426-1.283.1782.7484-.392 1.4969-.784 2.2453-1.1405-.0356.2495-.0356.5346 0 .7485z" fill="#F7EBE7"/><path d="M96.2811 47.2006c-.3564.6415-.9623 1.0336-1.4613 1.2118-.4276.1782-.8553.2851-1.283.392-.1426.0357-.2495.0713-.3921.107-1.4969.392-2.8868 1.0335-4.1342 1.8889-.0713.0356-.1426.0713-.2139.0713h-.0713l-.4277-.0713c-.1425-.0356-.2494-.1069-.2851-.2495-.0356-.1425 0-.2495.0713-.3564 2.0315-2.0671 4.8471-3.3858 7.7696-3.5284.0713 0 .1069 0 .1426.0357.0356 0 .0713 0 .1069.0356.2138.0713.2851.2851.1782.4633zM163.927 70.9024c-1.034 0-2.067-.1069-3.101-.3207-.356-.0713-.748-.1782-.962-.499-.178-.2495-.214-.6059-.214-.891 0-.8554.142-1.4969.285-2.281.107-.4633.178-.9623.25-1.5682.142-1.0336.142-2.0671.142-3.0651l.036-3.1363c0-.1426.107-.2495.285-.2495.142 0 .249.1069.249.2851l-.035 3.1364c0 1.0336-.036 2.1028-.179 3.1363-.071.6059-.178 1.1405-.285 1.5682-.142.7485-.285 1.39-.285 2.1741 0 .2138 0 .4277.107.5702.107.1782.392.2495.642.2852 1.318.2851 2.673.3564 3.991.2851.143 0 .286.1069.286.2495 0 .1425-.107.2851-.25.2851-.285 0-.641.0356-.962.0356z" fill="#003668"/><path d="M148.067 149.062c-1.747-3.6-3.137-7.413-4.17-11.263-.036-.142-.072-.32-.107-.463v-.036c-.178.036-.321.107-.499.143v.036c.035.142.071.32.142.463.998 3.778 2.388 7.484 4.063 11.048-9.302 1.07-20.065 1.533-29.617-2.673-.57-2.102-1.069-3.991-1.568-5.845v-.035c.249-.357.356-.784.285-1.212.321-.249.535-.57.677-.927.143-.463.072-1.033-.214-1.497-.142-.213-.32-.356-.499-.463.107-.107.214-.249.286-.392.285-.748-.286-1.425-.749-1.889l-1.889-1.889v-.142c-.427-1.818-.891-3.707-1.354-5.632-.036-.071-.036-.178-.071-.249 0-.071-.036-.107-.036-.178v-.036c-.713-3.101-1.283-5.631-1.746-7.912v-.071c-1.569-7.699-2.246-14.684-2.103-20.743 3.386.1425 6.807.2138 10.264.2138 6.166 0 12.403-.1782 18.569-.6059 0 4.2411.214 8.4821.641 12.6881.571 5.595 1.533 11.191 2.887 16.644h.571v-.071c-1.355-5.453-2.317-11.049-2.887-16.644-.428-4.277-.677-8.625-.642-12.9022 0-.0713-.035-.1426-.071-.1782-.071-.0356-.143-.0713-.214-.0713-6.237.4277-12.581.6415-18.818.6415-3.529 0-7.057-.0712-10.514-.2138-.071 0-.143.0356-.178.0713-.072.0356-.072.1069-.072.1782-.178 6.1305.499 13.2585 2.103 21.0995v.035c.464 2.281.998 4.812 1.711 7.877-.499-.071-.962-.25-1.461-.357-.606-.178-1.212-.356-1.818-.427-1.212-.179-2.922.107-3.6 1.425-.249.428-.32.927-.285 1.462-1.283.285-2.174 1.639-2.174 2.886 0 .499.071 1.034.285 1.569-.641.998-.784 2.352-.32 3.599.178.535.463 1.07.855 1.569.036.071-.036.213-.071.32v.036c-.321.998-.036 2.138.677 2.887.677.713 1.675.998 2.673 1.176.641.142 1.354.249 2.031.249h.321c.606-.035 1.426-.178 2.174-.712.321.035.642.035.998.035.499 0 .998-.035 1.497-.107.57-.071 1.319-.214 1.889-.677l.071-.071c.464 1.782.963 3.635 1.497 5.667.036.071.071.142.143.178 5.987 2.673 12.403 3.493 18.675 3.493 4.028 0 7.984-.357 11.726-.784.071 0 .178-.072.214-.143-.143 0-.107-.107-.178-.178zm-42.341-22.24c.534-.998 1.924-1.283 3.065-1.14.606.071 1.176.249 1.746.427.571.179 1.141.321 1.711.428.392 1.675.784 3.35 1.176 4.918l-2.673-2.708c-.107-.107-.285-.107-.392 0-.107.107-.107.285 0 .392l5.239 5.275c.57.57.749.962.642 1.318-.214.535-1.069.499-1.568.357-3.315-.784-5.952-3.386-7.627-5.239-.499-.571-1.034-1.177-1.355-1.889-.071-.214-.142-.392-.178-.606 0-.072-.036-.143-.036-.25-.035-.463.036-.926.25-1.283zm3.457 15.005c-.749.035-1.533-.072-2.245-.25-.82-.178-1.747-.392-2.388-1.033-.571-.606-.82-1.533-.535-2.317v-.036c.285.321.642.642 1.034.963 1.532 1.247 3.457 2.067 5.417 2.388-.463.214-.927.249-1.283.285zm6.237-1.319c-.499.356-1.14.499-1.639.57-.749.107-1.497.107-2.246.072-.107 0-.214 0-.321-.036-2.102-.214-4.205-1.034-5.845-2.388-.534-.428-.962-.855-1.318-1.319 0-.035-.036-.035-.036-.071-.356-.463-.606-.927-.784-1.39-.356-.962-.321-2.031.107-2.815.249.498.606.997.998 1.461 1.817 2.138 4.597 3.742 8.411 4.847.642.178 1.283.356 1.96.356.143 0 .321 0 .464-.035.285-.036.57-.107.855-.25-.036.392-.321.784-.606.998zm.606-1.604c-.285.178-.606.285-.927.357-.748.107-1.497-.107-2.209-.321-3.707-1.105-6.38-2.637-8.162-4.705-.499-.57-.855-1.14-1.105-1.675-.036-.107-.071-.214-.107-.321-.142-.427-.214-.855-.214-1.283.036-1.033.713-2.174 1.747-2.387.035.178.107.392.178.57.321.784.891 1.461 1.425 2.067 1.711 1.925 4.42 4.562 7.877 5.417.249.072.499.072.748.072.179 0 .321 0 .499-.036.036 0 .072.036.107.036.321.035.535.249.642.392.214.285.249.712.142.998-.107.285-.285.534-.534.712 0 .036-.071.072-.107.107z" fill="gray"/><path d="M70.1211 87.3684c.0356.0713.0712.1782.0712.2495 0 .3208-.2494.5702-.5702.5702-.1782 0-.3208-.0712-.4277-.2138-.1069.1426-.2495.2138-.4277.2138-.3207 0-.5702-.2494-.5702-.5702 0-.1782.0713-.3208.1782-.4277-.3564-.0356-.6059-.3207-.6059-.6415 0-.3564.3208-.6415.7485-.6415.0712-.3208.2851-.5703.5702-.5703.3208 0 .5702.3564.5702.7485 0 .1069 0 .1782-.0356.2851.0713-.0713.1782-.1069.3208-.1069.3207 0 .5702.2495.5702.5702-.0713.2495-.2138.4277-.392.5346zM78.1402 111.746c.0356.071.0712.178.0712.249 0 .321-.2494.571-.5702.571-.1782 0-.3208-.072-.4277-.214-.1069.142-.2495.214-.4277.214-.3208 0-.5702-.25-.5702-.571 0-.178.0713-.32.1782-.427-.1069 0-.1782-.036-.2495-.107 0-.357 0-.713-.0357-1.105.107-.071.2852-.107.4277-.107.0713-.321.2852-.57.5703-.57.3207 0 .5702.356.5702.748 0 .107 0 .178-.0356.285.0713-.071.1782-.107.3207-.107.3208 0 .5703.25.5703.571-.0713.285-.2138.499-.392.57zM77.57 91.5024c.0713-.0356.1782-.0356.2495-.0356.3208.0357.5346.3208.4633.6415-.0356.1782-.1425.3208-.2851.3921.1069.1069.1782.2851.1426.4633-.0357.3208-.3564.5346-.6416.4633-.1782-.0356-.2851-.1069-.392-.2494-.1069.3207-.4277.5346-.7485.4989-.3564-.0713-.6058-.4277-.5346-.8197-.3207-.1069-.5346-.3564-.4989-.6415.0356-.3208.4277-.499.8553-.4634.107 0 .1782.0357.2852.0713-.0357-.1069-.0713-.2138-.0357-.3208.0357-.3207.3564-.5346.6416-.4633.2851.1069.4633.2851.4989.4633zM69.1233 82.3787c-.0357-.0356-.0357-.0356-.0713-.0713-.1069.3208-.4277.5346-.7128.499-.3564-.0713-.6059-.4277-.5346-.8197-.3208-.1069-.5346-.3564-.499-.6416.0357-.2851.3564-.4989.7485-.4633.0713.1426.1782.2495.2495.3921.1425.2138.2851.392.4276.6058.1426.1426.2852.3208.3921.499zM82.5598 88.4732c-.0713-.0357-.1782-.0357-.2495-.0357-.3208.0357-.5346.3208-.4633.6415.0356.1782.1425.3208.2851.3921-.1069.1069-.1782.2851-.1426.4633.0357.3208.3565.5346.6416.4633.1782-.0356.2851-.1069.392-.2494.1069.3207.4277.5346.7485.4989.3564-.0713.6059-.4277.5346-.8197.3207-.1069.5346-.3564.4989-.6415-.0356-.3208-.4276-.499-.8553-.4634-.107 0-.1782.0357-.2851.0713.0356-.1069.0712-.2138.0356-.3207-.0356-.3208-.3564-.5347-.6415-.4634-.2495.107-.4277.2851-.499.4634zM85.9812 77.674c-.2851 0-.499-.2138-.6059-.499-.0713.1426-.2138.2139-.392.2495-.3208.0357-.6059-.1782-.6415-.4633-.0357-.1782.0356-.3564.1425-.4633-.1425-.0713-.2495-.2139-.2851-.3921-.0356-.3207.1782-.6059.4633-.6415h.2495c.0713-.2138.2138-.3564.4633-.392h.107c.2494.8197.392 1.7107.4989 2.6017zM77.071 88.4013c0 .3564-.2138.6771-.5346.7128-.3208.0356-.6415-.1782-.7128-.499-.0713.1069-.2138.2138-.392.2495-.3208.0356-.6059-.1782-.6416-.4633-.0356-.1782.0357-.3564.1426-.4634-.1426-.0713-.2495-.2138-.2851-.392v-.0713c.7484.3921 1.5681.7485 2.4235.9267zM84.4842 82.6991c.1069.1069.1782.2851.1426.4633-.0357.3208-.3564.5346-.6415.4633-.1783-.0356-.2852-.1069-.3921-.2495-.0713.2495-.2495.4277-.4633.4634.1069-.3208.2138-.6059.2851-.9267.0713-.2138.1426-.4633.1782-.6772.0713-.2851.1426-.6058.1782-.891.1069.0713.1782.1782.2139.3208.0712-.0356.1782-.0356.2494 0 .3208.0356.5346.3564.4634.6415.0356.1426-.0713.2851-.2139.3921zM74.113 95.4588c-.1426.2138-.3564.2851-.6415.2494-.0713.2495-.2852.4277-.5703.4277-.3207 0-.6059-.2495-.6059-.5702V95.53c-.3564 0-.6415-.2495-.6415-.5346 0-.2138.1782-.4277.3921-.4989-.0357-.107-.0713-.2139-.0713-.3564 0-.3921.2851-.7485.6415-.7485.2138 0 .4277.1426.5346.3208.1069-.1069.2495-.1426.3921-.1426.3564 0 .6415.3208.6415.7485 0 .1425-.0357.2851-.1069.392.1425.2138.1782.5346.0356.7485zM83.3793 94.7454c-.0356.1426-.1069.3208-.1425.4633-.1426.1426-.3564.1782-.5703.1782-.0713.2495-.2851.4277-.5702.4277-.3208 0-.6059-.2495-.6059-.5702-.3564 0-.6415-.2495-.6415-.5346 0-.2139.1782-.4277.392-.499-.0356-.1069-.0713-.2138-.0713-.3564 0-.392.2852-.7128.6416-.7128.2138 0 .4276.1426.5346.3208.1069-.107.2495-.1426.392-.1426.3564 0 .6415.3208.6415.7128 0 .1426-.0356.2851-.1069.392.0357.0713.0713.1783.1069.3208zM65.8443 80.4187c-.1425.2139-.392.2851-.6415.2495-.0357.1782-.1782.3564-.3564.392 0-.0356 0-.0712-.0357-.1069-.0712-.3207-.1069-.6059-.1782-.9266-.0356-.1782-.0712-.3564-.0712-.5346-.0713-.3921-.107-.7485-.1426-1.1405.1782.0356.3564.1425.4277.3207.1069-.1069.2495-.1425.392-.1425.3564 0 .6416.3207.6416.7128 0 .1425-.0357.2851-.107.392.1782.2851.2139.5703.0713.7841zM79.2808 98.7728c-.0713.3564-.4277.6059-.7841.5346h-.0357c-.0712.3921-.4276.6416-.784.5703-.2495-.0713-.4277-.2851-.4634-.5703-.1425.0357-.2851.0357-.4277 0-.4633-.1069-.7484-.4989-.6771-.8553.0356-.2495.2495-.4277.4989-.499-.0712-.1426-.1069-.3208-.0712-.4633.0712-.3921.5346-.6059.9623-.5346.1425.0356.2851.0712.3564.1782.392-.3564.9623-.4634 1.2117-.1782.2495.2494.1782.7128-.1425 1.1048.2851.1426.392.4277.3564.7128zM79.9577 117.484c-.1069-.036-.2138-.071-.2851-.143-.0713.143-.1782.286-.3564.321-.3564.143-.7841-.071-.9623-.499-.0356-.142-.0713-.285-.0713-.392-.5346-.142-.891-.534-.8197-.891.0713-.356.499-.534.9979-.499 0-.285.1783-.534.4277-.641.2495-.107.5346-.036.7485.142.0356.321.0713.642.1069.998.0356.036.0356.107.0356.143v.071c.0357.428.107.891.1782 1.39zM77.5343 119.729c-.1069.25-.3564.357-.6415.357 0 .142-.0356.285-.0713.392-.1782.427-.6415.641-.9979.463-.2138-.107-.3564-.321-.392-.606-.1426.071-.3208.036-.4634 0-.0712-.035-.1425-.071-.1782-.107.1426-.855.3208-1.711.4634-2.566.2494 0 .5346.143.7841.428.1782-.178.4989-.25.784-.143.3564.143.499.535.3564.891v.036c.3208.142.499.534.3564.855zM79.352 104.904c.0356.107.0712.285.0356.427-.0356.464-.3921.784-.7841.749-.2495-.036-.4633-.178-.5702-.428-.1426.107-.2852.143-.4634.143-.392-.036-.6771-.464-.6415-.891 0-.143.0713-.285.1426-.392-.4277-.357-.5703-.891-.3208-1.177.2138-.285.6772-.249 1.1048 0 .107-.249.3921-.392.6772-.356.3921.036.6415.356.6059.713v.035c.3921.036.7128.357.6772.713 0 .179-.1782.392-.4633.464zM75.1108 102.836c-.2138.142-.499.107-.7128-.036-.0357.143-.1426.285-.2851.357-.1782.107-.3564.107-.5346.071-.3208-.713-.6059-1.461-.9267-2.174.0713 0 .1426-.036.2138-.036-.0712-.285.0713-.534.3208-.713.3208-.178.7485-.107.9267.214v.036c.3564-.214.7841-.143.9623.178.1425.214.1069.499-.0713.713.1069.071.2138.178.2851.321.2495.392.1426.855-.1782 1.069zM73.3288 90.1831c0 .3208-.2495.6059-.5703.6059-.0713 0-.1069 0-.1782-.0356v.0356c0 .3564-.2495.6415-.5346.6415-.2138 0-.4277-.1425-.499-.392-.1069.0356-.2138.0713-.3564.0713-.392 0-.7484-.2852-.7484-.6059 0-.2139.1426-.4277.3208-.5346-.107-.1069-.1426-.2139-.1782-.3921 0-.3564.3207-.6415.7128-.6415.1425 0 .2851.0356.392.0713.2139-.1782.5346-.2495.7485-.1069.1782.1425.2851.3564.2494.6059h.0357c.3207.0712.6059.3563.6059.6771z" fill="#F7F7F7"/><path d="M79.7441 115.952v.071c-.0357.179-.1782.286-.3564.286-.2139 0-.3565-.179-.3565-.357 0-.214.1783-.356.3565-.356.1425 0 .2851.071.3207.214.0357.035.0357.071.0357.142zM76.9997 111.568c.1969 0 .3564-.159.3564-.356 0-.197-.1595-.357-.3564-.357-.1968 0-.3564.16-.3564.357 0 .197.1596.356.3564.356zM78.6391 104.726c.1969 0 .3564-.16.3564-.357 0-.197-.1595-.356-.3564-.356-.1968 0-.3564.159-.3564.356 0 .197.1596.357.3564.357zM73.7209 102.266c.1968 0 .3564-.16.3564-.357 0-.197-.1596-.356-.3564-.356s-.3564.159-.3564.356c0 .197.1596.357.3564.357zM77.8908 98.7021c.1969 0 .3564-.1596.3564-.3564 0-.1969-.1595-.3564-.3564-.3564-.1968 0-.3564.1595-.3564.3564 0 .1968.1596.3564.3564.3564zM81.8469 94.5673c.1968 0 .3564-.1596.3564-.3564s-.1596-.3564-.3564-.3564c-.1969 0-.3564.1596-.3564.3564s.1595.3564.3564.3564zM83.4506 89.6845c.1969 0 .3564-.1596.3564-.3564 0-.1969-.1595-.3564-.3564-.3564-.1968 0-.3564.1595-.3564.3564 0 .1968.1596.3564.3564.3564zM83.8071 82.5561c0 .2139-.1782.3564-.3564.3564h-.0357c.0713-.2138.1426-.4633.1782-.6771.1426.0712.2139.1782.2139.3207zM85.197 76.7118c.1968 0 .3564-.1595.3564-.3564 0-.1968-.1596-.3564-.3564-.3564-.1969 0-.3564.1596-.3564.3564 0 .1969.1595.3564.3564.3564zM76.6789 92.4648c.1969 0 .3564-.1596.3564-.3564 0-.1969-.1595-.3564-.3564-.3564-.1968 0-.3564.1595-.3564.3564 0 .1968.1596.3564.3564.3564zM69.0876 87.1903c.1968 0 .3564-.1595.3564-.3564 0-.1968-.1596-.3564-.3564-.3564s-.3564.1596-.3564.3564c0 .1969.1596.3564.3564.3564zM72.2241 90.5409c.1968 0 .3564-.1595.3564-.3564 0-.1968-.1596-.3564-.3564-.3564-.1969 0-.3564.1596-.3564.3564 0 .1969.1595.3564.3564.3564zM68.7668 81.8437c-.0713.0356-.1069.0713-.2139.0713-.2138 0-.3564-.1782-.3564-.3564 0-.1426.0713-.2495.1426-.2852.1426.1782.2851.3921.4277.5703zM65.2028 79.7416c0 .2139-.1782.3564-.3564.3564-.0713 0-.1426-.0356-.2138-.0712-.0357-.1782-.0713-.3564-.0713-.5346.0713-.0713.1782-.1426.2851-.1426.2138.0356.3564.2138.3564.392zM72.9367 95.3163c.1969 0 .3564-.1595.3564-.3564 0-.1968-.1595-.3564-.3564-.3564-.1968 0-.3564.1596-.3564.3564 0 .1969.1596.3564.3564.3564zM75.7524 119.623c.1968 0 .3564-.16.3564-.356 0-.197-.1596-.357-.3564-.357s-.3564.16-.3564.357c0 .196.1596.356.3564.356z" fill="#FF5722"/><path d="M84.1991 117.305c-.0713.036-.1069.072-.1782.072s-.1426-.036-.1782-.072l-1.9602-2.031c-.2139-.214-.4277-.428-.6772-.57-.1782-.107-.392-.179-.6059-.25-.2138-.071-.392-.142-.6059-.249-.4277.178-.8553.285-1.3187.285h-.1069c-.1782.428-.3564.82-.6415 1.176-.0713.107-.1782.214-.2495.321-.1426.178-.2495.321-.3564.499-.2138.356-.3564.784-.499 1.176-.5346 1.532-1.0692 3.136-1.4969 4.74-.0356.107-.1425.214-.2494.214h-.0713c-.1426-.036-.2139-.178-.1782-.321.4277-1.604.9623-3.208 1.4969-4.776.1425-.427.2851-.855.5346-1.283.1069-.178.2495-.356.392-.534.0713-.107.1426-.179.2139-.285.2138-.286.392-.606.4989-.927-.1069-.036-.2495-.071-.3564-.107-.4989-.178-.6415-.463-.6771-.677-.0357-.143 0-.321.0712-.464-.8553-.57-1.5681-1.283-2.2097-1.96-.2851-.285-.5346-.57-.7128-.926-.2138-.428-.2495-.891-.1069-1.284.1782-.498.7128-.784 1.1761-.712.1426.035.2495.178.2139.32-.0357.143-.1782.25-.3208.214-.2138-.035-.4633.143-.5702.357-.107.249-.0713.534.0712.855.1426.285.3564.535.6416.82.6415.677 1.39 1.425 2.2097 1.96.1425-.071.3207-.107.4633-.143.5703-.106 1.0692-.142 1.5325-.071l1.5682-3.101c.1782-.32.3208-.677.3921-.997.0356-.286 0-.642-.2495-.82-.1069-.107-.2495-.143-.3921-.143-.0712 0-.1782.036-.2494.107-.107.107-.2495.143-.3921.036-.1069-.107-.1425-.25-.0356-.392.1425-.178.3564-.285.6415-.321.2851-.036.6059.071.7841.249.3208.286.499.785.4277 1.319-.0713.428-.2495.82-.4277 1.176l-1.4969 2.994c.1782.071.3564.143.5346.214.1069.071.1426.143.1426.249.0712.179.0356.392-.0713.571 0 .035-.0357.071-.0713.071.0713.036.1782.071.2495.071.2495.072.4633.143.7128.285.3208.179.5702.428.7841.678l1.9602 1.995c.1069.107.1069.286 0 .392z" fill="#B2B2B2"/><path d="M79.6726 107.576c-.0356.321-.0712.606-.1069.927l-1.5682 2.067c-.0356.071-.1069.107-.1782.107h-.0356c-.0713 0-.1069 0-.1782-.071l-1.7464-1.426c-.0356-.214-.1069-.428-.1425-.606.1069-.036.2138-.036.2851.036l1.7107 1.39 1.782-2.353c.0357-.035.107-.071.1782-.071z" fill="#B2B2B2"/></svg>